<svg width="45" height="35" viewBox="0 0 45 35" fill="none" xmlns="http://www.w3.org/2000/svg">
<path id="Vector" fill-rule="evenodd" clip-rule="evenodd" d="M6.91658 17.7158C6.10431 14.2364 6.64688 10.5783 8.43408 7.48455C10.2213 4.39076 13.1191 2.09325 16.5389 1.05868C19.9588 0.0241217 23.6442 0.330084 26.8466 1.91442C30.049 3.49877 32.5283 6.24268 33.7809 9.58883C34.486 8.90325 35.3557 8.41073 36.3063 8.15867C37.2569 7.90661 38.2564 7.9035 39.2086 8.14964C40.1608 8.39578 41.0335 8.88288 41.7429 9.56405C42.4523 10.2452 42.9743 11.0975 43.2589 12.0389L44.4654 16.0271C44.6911 16.7731 44.7623 17.5574 44.6745 18.3319C44.5868 19.1063 44.3419 19.8548 43.9549 20.5313C43.5679 21.2079 43.0469 21.7984 42.4238 22.2667C41.8007 22.7349 41.0886 23.0711 40.3311 23.2547L40.3335 23.2627C38.9605 23.678 37.4788 23.5309 36.2144 22.8538C34.9499 22.1767 34.0061 21.025 33.5908 19.6521L31.0849 11.3686C30.245 8.59209 28.3364 6.26295 25.7792 4.89357C23.222 3.5242 20.2255 3.22678 17.4489 4.06673C14.6724 4.90668 12.3433 6.8152 10.9739 9.37245C9.6045 11.9297 9.30708 14.9262 10.147 17.7027L12.6529 25.9861C13.0683 27.3591 12.9212 28.8408 12.2441 30.1053C11.5669 31.3698 10.4152 32.3135 9.0423 32.7288L9.03988 32.7208C8.30765 32.9879 7.5286 33.1028 6.75043 33.0585C5.97225 33.0141 5.21131 32.8115 4.51417 32.4629C3.81702 32.1143 3.19835 31.6271 2.69599 31.0311C2.19363 30.4352 1.81816 29.743 1.59255 28.9969L0.386059 25.0087C0.101048 24.0675 0.0631343 23.0687 0.275968 22.1085C0.488801 21.1484 0.945215 20.2592 1.60127 19.5265C2.25733 18.7939 3.09095 18.2424 4.02187 17.9253C4.9528 17.6082 5.94969 17.536 6.91658 17.7158ZM8.3624 22.5958C8.16214 21.9348 7.70751 21.3804 7.09851 21.0546C6.48952 20.7288 5.77604 20.6582 5.11504 20.8585C4.45404 21.0588 3.89966 21.5134 3.57386 22.1224C3.24807 22.7314 3.17754 23.4449 3.37779 24.1059L4.58428 28.094C4.78427 28.7551 5.23868 29.3097 5.84755 29.6357C6.45641 29.9617 7.16986 30.0326 7.83094 29.8326C8.49202 29.6326 9.04658 29.1782 9.37262 28.5693C9.69867 27.9604 9.76948 27.247 9.56949 26.5859C9.56949 26.5859 9.5701 26.5879 9.56949 26.5859L8.363 22.5977L8.3624 22.5958ZM13.1388 16.7998C12.5388 14.8166 12.7512 12.6763 13.7294 10.8496C14.7075 9.02305 16.3712 7.65981 18.3544 7.05985C20.3376 6.45988 22.478 6.67233 24.3046 7.65045C26.1312 8.62858 27.4944 10.2923 28.0944 12.2755L29.9041 18.2577C30.4256 19.9815 30.3356 21.8325 29.6495 23.4976C28.9634 25.1627 27.7233 26.5397 26.1388 27.3957L27.5408 32.03C27.6607 32.4266 27.6183 32.8547 27.4226 33.22C27.227 33.5854 26.8943 33.858 26.4976 33.978C26.101 34.098 25.6729 34.0555 25.3076 33.8599C24.9423 33.6642 24.6696 33.3315 24.5496 32.9349L23.1471 28.2986C21.3538 28.4644 19.5583 28.0057 18.0643 27.0002C16.5703 25.9946 15.4694 24.5039 14.9479 22.7801L13.1382 16.7978L13.1388 16.7998ZM15.9327 14.3222L16.176 14.2486C16.5726 14.1286 17.0007 14.1711 17.366 14.3667C17.7313 14.5623 18.004 14.8951 18.124 15.2917C18.244 15.6884 18.2015 16.1164 18.0059 16.4818C17.8102 16.8471 17.4775 17.1197 17.0808 17.2397L16.5823 17.3905L17.4872 20.3817L17.9857 20.2308C18.3824 20.1109 18.8104 20.1533 19.1758 20.349C19.5411 20.5446 19.8137 20.8773 19.9337 21.274C20.0537 21.6706 20.0112 22.0987 19.8156 22.464C19.62 22.8293 19.2872 23.102 18.8906 23.222L18.6473 23.2956C19.2209 24.0779 20.0231 24.6629 20.9433 24.9701C21.8635 25.2772 22.8563 25.2913 23.7848 25.0104C24.7133 24.7296 25.5318 24.1675 26.1274 23.4018C26.723 22.6361 27.0664 21.7045 27.1102 20.7354L24.8728 21.4122C24.4762 21.5322 24.0481 21.4897 23.6828 21.2941C23.3175 21.0985 23.0448 20.7658 22.9248 20.3691C22.8048 19.9725 22.8473 19.5444 23.043 19.1791C23.2386 18.8137 23.5713 18.5411 23.968 18.4211L26.4606 17.6671L25.5557 14.6759L23.0631 15.43C22.6664 15.55 22.2384 15.5075 21.8731 15.3119C21.5077 15.1162 21.2351 14.7835 21.1151 14.3869C20.9951 13.9902 21.0376 13.5621 21.2332 13.1968C21.4288 12.8315 21.7616 12.5588 22.1582 12.4389L24.3956 11.762C23.8213 10.9809 23.0191 10.397 22.0993 10.0906C21.1795 9.78418 20.1873 9.7704 19.2593 10.0511C18.3314 10.3319 17.5132 10.8933 16.9175 11.6582C16.3217 12.423 15.9777 13.3537 15.9327 14.3222ZM37.0211 11.2053C35.6452 11.6215 34.8663 13.076 35.2825 14.4519L36.489 18.4401C36.689 19.1012 37.1434 19.6557 37.7523 19.9818C38.3612 20.3078 39.0746 20.3786 39.7357 20.1786C40.3968 19.9787 40.9513 19.5242 41.2774 18.9154C41.6034 18.3065 41.6742 17.5931 41.4742 16.932L40.2678 12.9438C39.8515 11.5679 38.397 10.789 37.0211 11.2053Z" fill="url(#paint0_linear_103_230)"/>
<defs>
<linearGradient id="paint0_linear_103_230" x1="16.5389" y1="1.05869" x2="26.4976" y2="33.978" gradientUnits="userSpaceOnUse">
<stop stop-color="#7A3199"/>
<stop offset="1" stop-color="#161033"/>
</linearGradient>
</defs>
</svg>
