<svg width="159" height="159" viewBox="0 0 159 159" fill="none" xmlns="http://www.w3.org/2000/svg">
<g filter="url(#filter0_d_103_229)">
<rect x="39" y="47.8213" width="65" height="65" rx="5" transform="rotate(-16.8315 39 47.8213)" fill="white"/>
<path fill-rule="evenodd" clip-rule="evenodd" d="M64.9166 69.7158C64.1043 66.2364 64.6469 62.5783 66.4341 59.4845C68.2213 56.3908 71.1191 54.0932 74.5389 53.0587C77.9588 52.0241 81.6442 52.3301 84.8466 53.9144C88.049 55.4988 90.5283 58.2427 91.7809 61.5888C92.486 60.9033 93.3557 60.4107 94.3063 60.1587C95.2569 59.9066 96.2564 59.9035 97.2086 60.1496C98.1608 60.3958 99.0335 60.8829 99.7429 61.5641C100.452 62.2452 100.974 63.0975 101.259 64.0389L102.465 68.0271C102.691 68.7731 102.762 69.5574 102.675 70.3319C102.587 71.1063 102.342 71.8548 101.955 72.5313C101.568 73.2079 101.047 73.7984 100.424 74.2667C99.8007 74.7349 99.0886 75.0711 98.3311 75.2547L98.3335 75.2627C96.9605 75.678 95.4789 75.5309 94.2144 74.8538C92.9499 74.1767 92.0061 73.025 91.5908 71.6521L89.0849 63.3686C88.245 60.5921 86.3364 58.2629 83.7792 56.8936C81.222 55.5242 78.2255 55.2268 75.4489 56.0667C72.6724 56.9067 70.3432 58.8152 68.9739 61.3724C67.6045 63.9297 67.3071 66.9262 68.147 69.7027L70.6529 77.9861C71.0683 79.3591 70.9212 80.8408 70.2441 82.1053C69.5669 83.3698 68.4152 84.3135 67.0423 84.7288L67.0399 84.7208C66.3076 84.9879 65.5286 85.1028 64.7504 85.0585C63.9723 85.0141 63.2113 84.8114 62.5142 84.4629C61.817 84.1143 61.1983 83.6271 60.696 83.0311C60.1936 82.4352 59.8182 81.743 59.5926 80.9969L58.3861 77.0087C58.101 76.0675 58.0631 75.0687 58.276 74.1085C58.4888 73.1484 58.9452 72.2592 59.6013 71.5265C60.2573 70.7939 61.0909 70.2424 62.0219 69.9253C62.9528 69.6082 63.9497 69.536 64.9166 69.7158ZM66.3624 74.5957C66.1621 73.9347 65.7075 73.3804 65.0985 73.0546C64.4895 72.7288 63.776 72.6582 63.115 72.8585C62.454 73.0588 61.8997 73.5134 61.5739 74.1224C61.2481 74.7314 61.1775 75.4449 61.3778 76.1059L62.5843 80.094C62.7843 80.7551 63.2387 81.3097 63.8475 81.6357C64.4564 81.9617 65.1699 82.0326 65.8309 81.8326C66.492 81.6326 67.0466 81.1782 67.3726 80.5693C67.6987 79.9604 67.7695 79.247 67.5695 78.5859C67.5701 78.5879 67.5695 78.5859 67.5695 78.5859L66.363 74.5977L66.3624 74.5957ZM71.1388 68.7998C70.5388 66.8166 70.7512 64.6763 71.7294 62.8496C72.7075 61.023 74.3712 59.6598 76.3544 59.0598C78.3376 58.4599 80.478 58.6723 82.3046 59.6505C84.1312 60.6286 85.4944 62.2923 86.0944 64.2755L87.9041 70.2577C88.4256 71.9815 88.3356 73.8325 87.6495 75.4976C86.9634 77.1627 85.7233 78.5397 84.1388 79.3957L85.5408 84.03C85.6607 84.4266 85.6183 84.8547 85.4226 85.22C85.227 85.5854 84.8943 85.858 84.4976 85.978C84.101 86.098 83.6729 86.0555 83.3076 85.8599C82.9423 85.6642 82.6696 85.3315 82.5496 84.9349L81.1471 80.2986C79.3538 80.4644 77.5583 80.0057 76.0643 79.0002C74.5703 77.9946 73.4694 76.5039 72.9479 74.7801L71.1382 68.7978L71.1388 68.7998ZM73.9327 66.3222L74.176 66.2486C74.5726 66.1286 75.0007 66.1711 75.366 66.3667C75.7313 66.5623 76.004 66.8951 76.124 67.2917C76.244 67.6884 76.2015 68.1164 76.0059 68.4818C75.8102 68.8471 75.4775 69.1197 75.0808 69.2397L74.5823 69.3905L75.4872 72.3817L75.9857 72.2308C76.3824 72.1109 76.8104 72.1533 77.1757 72.349C77.5411 72.5446 77.8137 72.8773 77.9337 73.274C78.0537 73.6706 78.0112 74.0987 77.8156 74.464C77.62 74.8293 77.2872 75.102 76.8906 75.222L76.6473 75.2956C77.2209 76.0779 78.0231 76.6629 78.9433 76.9701C79.8635 77.2772 80.8563 77.2913 81.7848 77.0104C82.7133 76.7296 83.5318 76.1675 84.1274 75.4018C84.723 74.6361 85.0664 73.7045 85.1102 72.7354L82.8728 73.4122C82.4762 73.5322 82.0481 73.4897 81.6828 73.2941C81.3175 73.0985 81.0448 72.7658 80.9248 72.3691C80.8048 71.9725 80.8473 71.5444 81.043 71.1791C81.2386 70.8137 81.5713 70.5411 81.968 70.4211L84.4606 69.6671L83.5557 66.6759L81.0631 67.43C80.6664 67.55 80.2384 67.5075 79.8731 67.3119C79.5077 67.1162 79.2351 66.7835 79.1151 66.3869C78.9951 65.9902 79.0376 65.5621 79.2332 65.1968C79.4288 64.8315 79.7616 64.5588 80.1582 64.4389L82.3956 63.762C81.8213 62.9809 81.0191 62.397 80.0993 62.0906C79.1795 61.7842 78.1873 61.7704 77.2593 62.0511C76.3314 62.3319 75.5132 62.8933 74.9175 63.6582C74.3217 64.423 73.9777 65.3537 73.9327 66.3222ZM95.0211 63.2053C93.6452 63.6215 92.8663 65.076 93.2825 66.4519L94.489 70.4401C94.689 71.1012 95.1434 71.6557 95.7523 71.9818C96.3612 72.3078 97.0746 72.3786 97.7357 72.1786C98.3968 71.9787 98.9513 71.5242 99.2774 70.9154C99.6034 70.3065 99.6742 69.5931 99.4742 68.932L98.2677 64.9438C97.8515 63.5679 96.397 62.789 95.0211 63.2053Z" fill="url(#paint0_linear_103_229)"/>
</g>
<defs>
<filter id="filter0_d_103_229" x="-1" y="-1" width="161.037" height="161.037" filterUnits="userSpaceOnUse" color-interpolation-filters="sRGB">
<feFlood flood-opacity="0" result="BackgroundImageFix"/>
<feColorMatrix in="SourceAlpha" type="matrix" values="0 0 0 0 0 0 0 0 0 0 0 0 0 0 0 0 0 0 127 0" result="hardAlpha"/>
<feOffset dy="10"/>
<feGaussianBlur stdDeviation="20"/>
<feComposite in2="hardAlpha" operator="out"/>
<feColorMatrix type="matrix" values="0 0 0 0 0.604167 0 0 0 0 0.58151 0 0 0 0 0.58151 0 0 0 0.25 0"/>
<feBlend mode="normal" in2="BackgroundImageFix" result="effect1_dropShadow_103_229"/>
<feBlend mode="normal" in="SourceGraphic" in2="effect1_dropShadow_103_229" result="shape"/>
</filter>
<linearGradient id="paint0_linear_103_229" x1="74.5389" y1="53.0587" x2="84.4976" y2="85.978" gradientUnits="userSpaceOnUse">
<stop stop-color="#7A3199"/>
<stop offset="1" stop-color="#161033"/>
</linearGradient>
</defs>
</svg>
